<?xml version="1.0" standalone="no"?> <!DOCTYPE svg PUBLIC "-//W3C//DTD SVG 1.0//EN" "http://www.w3.org/TR/2001/REC-SVG-20010904/DTD/svg10.dtd" > <svg xmlns="http://www.w3.org/2000/svg" width="100%" height="100%">
<defs >
<font id="bariol_regular" horiz-adv-x="390" ><font-face
    font-family="Bariol Regular"
    units-per-em="1000"
    panose-1="2 0 5 6 4 0 0 2 0 3"
    ascent="788"
    descent="-213"
    alphabetic="0" />
<missing-glyph horiz-adv-x="580" d="M309 124H254V179H309V124ZM305 229H258V268Q258 305 274 336T311 384T347 425T364 474Q364 507 342 525T288 544Q209 544 209 463H161Q161 529 196 561T289 594Q344 594 379 564T414 478Q414 449 403 426T376 386T344 354T316
316T305 268V229ZM88 48H492V651H88V48ZM40 700H540V0H40V700Z" />
<glyph unicode=" " glyph-name="space" horiz-adv-x="238" />
<glyph unicode="!" glyph-name="exclam" horiz-adv-x="208" d="M68 681T104 681T139 646L124 175Q124 157 104 157T84 175L69 646Q68 681 104 681ZM151 -8T104 -8T57 39Q57 87 104 87T151 39Q151 -8 104 -8Z" />
<glyph unicode="&quot;" glyph-name="quotedbl" horiz-adv-x="280" d="M69 681T84 681T106 674T112 654L103 482Q101 465 84 465T65 482L56 654Q55 666 62 673ZM181 681T196 681T218 674T224 654L215 482Q213 465 196 465T177 482L168 654Q167 666 174 673Z" />
<glyph unicode="#" glyph-name="numbersign" horiz-adv-x="550" d="M104 23L133 212H70Q60 212 53 219T46 236T53 253T70 260H141L162 396H92Q82 396 75 403T68 420T75 437T92 444H170L198 631Q202 652 223 652Q234 652 241 645T248 627L247 618L221 444H360L388
631Q392 652 413 652Q424 652 431 645T438 627L437 618L411 444H480Q490 444 497 437T504 420T497 403T480 396H403L382 260H458Q468 260 475 253T482 236T475 219T458 212H374L343 10Q340 -11 318 -11Q308 -11 301 -4T293 14L294 23L323 212H184L153 10Q150 -11
128 -11Q118 -11 111 -4T103 14L104 23ZM213 396L192 260H331L352 396H213Z" />
<glyph unicode="$" glyph-name="dollar" horiz-adv-x="558" d="M443 546Q379 625 281 625Q207 625 172 594T136 516Q136 471 175 442T269 395T380 356T475 291T514 180Q514 93 460 44T305 -13V-88Q305 -98 298 -106T279 -114T261 -106T253 -88V-13Q179 -9 123
25T41 109Q36 119 36 127Q36 140 45 149T68 159Q86 159 96 143Q154 48 274 48Q357 48 401 81T446 180Q446 223 418 253T348 297T257 329T166 365T96 422T68 516Q68 584 115 631T253 686V762Q253 772 260 780T279 788T297 780T305 762V686Q431 677 495 584Q501 575
501 565Q501 552 492 543T469 533Q453 533 443 546Z" />
<glyph unicode="%" glyph-name="percent" horiz-adv-x="746" d="M535 681Q546 681 553 674T560 656Q560 650 558 646L232 5Q226 -8 210 -8Q200 -8 193 -1T185 17Q185 23 187 27L513 668Q520 681 535 681ZM188 407Q285 407 285 524T188 641Q92 641 92 524T188 407ZM188
687Q265 687 300 643T335 524T300 406T188 361Q112 361 77 405T42 524T77 642T188 687ZM558 33Q655 33 655 150T558 267Q462 267 462 150T558 33ZM558 313Q635 313 670 269T705 150T670 32T558 -13Q482 -13 447 31T412 150T447 268T558 313Z" />
<glyph unicode="&amp;" glyph-name="ampersand" horiz-adv-x="616" d="M172 533Q172 455 205 392Q253 424 286 469T320 553Q320 589 300 609T250 629Q212 629 192 603T172 533ZM392 93Q316 152 268 199T185 303Q108 253 108 175Q108 116 152 80T258 44Q335 44
392 93ZM444 53Q370 -14 258 -14Q165 -14 105 36T44 175Q44 279 154 358Q108 444 108 533Q108 600 146 643T250 687Q309 687 346 651T384 553Q384 493 346 444T235 340Q297 242 434 139Q460 177 475 240Q481 263 505 263Q518 263 527 254T536 232Q536 222 533 212Q516
149 485 101Q515 82 583 52Q603 43 603 23Q603 10 594 1T572 -8Q554 -8 512 13T444 53Z" />
<glyph unicode="&apos;" glyph-name="quotesingle" horiz-adv-x="168" d="M69 681T84 681T106 674T112 654L103 482Q101 465 84 465T65 482L56 654Q55 666 62 673Z" />
<glyph unicode="(" glyph-name="parenleft" horiz-adv-x="294" d="M60 89T60 296T97 598T230 735Q238 738 243 738Q254 738 262 730T271 710Q271 692 253 684Q222 669 201 650T165 603T142 548T130 477T125 396T124 296T125 197T130 116T142 44T164 -11T200 -58T253
-92Q271 -100 271 -118Q271 -129 263 -137T243 -146Q238 -146 230 -143Q134 -101 97 -6Z" />
<glyph unicode=")" glyph-name="parenright" horiz-adv-x="294" d="M234 503T234 296T197 -6T64 -143Q57 -146 51 -146Q40 -146 32 -138T23 -118Q23 -100 41 -92Q72 -77 93 -58T129 -11T152 44T164 115T169 196T170 296T169 395T164 476T152 548T130 603T94 650T41
684Q23 692 23 710Q23 721 31 729T51 738Q56 738 64 735Q160 693 197 598Z" />
<glyph unicode="*" glyph-name="asterisk" horiz-adv-x="357" d="M240 441L178 534L116 441Q104 422 87 435Q69 448 81 464L145 552L44 575Q24 580 29 602Q34 624 55 617L160 586L156 692Q156 712 178 712T200 692L196 586L301 617Q322 624 327 602Q332 580 312
575L211 552L275 464Q287 448 269 435Q252 422 240 441Z" />
<glyph unicode="+" glyph-name="plus" horiz-adv-x="454" d="M454 229T454 218T446 199T427 191H256V21Q256 9 248 1T227 -8T207 0T198 21V191H27Q16 191 8 199T0 218T8 237T27 245H198V416Q198 428 206 436T227 445T247 437T256 416V245H427Q438 245 446 237Z" />
<glyph unicode="," glyph-name="comma" horiz-adv-x="162" d="M129 23Q129 -81 57 -156Q51 -162 44 -162Q29 -162 29 -147Q29 -142 32 -138Q69 -87 69 -47Q69 -28 51 -5T33 39Q33 87 80 87Q129 87 129 23Z" />
<glyph unicode="-" glyph-name="hyphen" horiz-adv-x="364" d="M309 263T309 252T301 233T282 225H82Q71 225 63 233T55 252T63 271T82 279H282Q293 279 301 271Z" />
<glyph unicode="." glyph-name="period" horiz-adv-x="160" d="M127 -8T80 -8T33 39Q33 87 80 87T127 39Q127 -8 80 -8Z" />
<glyph unicode="/" glyph-name="slash" horiz-adv-x="407" d="M41 -51L305 728Q312 751 336 751Q350 751 359 742T368 719Q368 713 365 704L101 -75Q94 -98 70 -98Q56 -98 47 -89T38 -66Q38 -60 41 -51Z" />
<glyph unicode="0" glyph-name="zero" horiz-adv-x="602" d="M207 46T301 46T438 114T482 337T439 559T301 627T164 559T120 337T163 115ZM175 687T301 687T487 602T548 337T488 72T301 -14T115 71T54 337T114 602Z" />
<glyph unicode="1" glyph-name="one" horiz-adv-x="351" d="M195 589L88 512Q79 506 69 506Q56 506 47 515T37 538Q37 556 51 565L208 674Q218 681 228 681Q242 681 251 672T261 648V25Q261 12 252 2T228 -8T205 2T195 25V589Z" />
<glyph unicode="2" glyph-name="two" horiz-adv-x="532" d="M67 557Q88 619 139 653T267 687Q366 687 423 634T481 492Q481 436 454 386T385 301T296 232T206 173T138 119T110 62H459Q472 62 481 53T490 31T481 9T459 0H73Q60 0 51 9T42 31Q42 92 80 141T173 227T282
298T375 383T414 492T375 589T267 627Q167 627 125 535Q116 515 96 515Q83 515 74 524T65 546Q65 551 67 557Z" />
<glyph unicode="3" glyph-name="three" horiz-adv-x="542" d="M264 408H274Q387 408 436 348T486 192Q486 93 427 40T255 -14Q108 -14 40 99Q35 107 35 116Q35 129 43 137T65 146Q82 146 92 130Q143 46 255 46Q337 46 378 83T420 192Q420 348 269 348H199Q186
348 178 356T169 378Q169 389 177 399L361 613H103Q90 613 82 621T73 643T81 664T103 673H429Q442 673 450 665T459 643Q459 631 451 622L264 408Z" />
<glyph unicode="4" glyph-name="four" horiz-adv-x="540" d="M415 217H472Q486 217 495 209T504 187T495 165T472 155H415V25Q415 12 406 2T382 -8T359 2T349 25V155H57Q44 155 35 164T26 186Q26 196 33 206L355 666Q366 680 382 680Q396 680 405 670T415 647V217ZM115
217H349V553L115 217Z" />
<glyph unicode="5" glyph-name="five" horiz-adv-x="555" d="M272 446Q379 446 441 389T504 217Q504 101 442 44T272 -14Q191 -14 132 21T41 121Q37 129 37 136Q37 149 46 158T68 167Q86 167 96 150Q128 96 169 72T272 48Q349 48 393 89T438 217Q438 301 393 343T272
385Q218 385 182 371T112 324Q99 311 85 311Q72 311 63 320T54 342Q54 345 56 355L114 649Q116 658 124 665T144 673H448Q461 673 470 664T479 642T470 620T448 611H166L126 406Q183 446 272 446Z" />
<glyph unicode="6" glyph-name="six" horiz-adv-x="566" d="M291 433Q394 433 456 377T518 211Q518 95 456 41T285 -14Q165 -14 107 76T48 321Q48 687 299 687Q354 687 397 671T460 632Q470 622 470 609T461 587T439 578Q429 578 418 586Q363 627 299 627Q114
627 114 345Q138 380 184 406T291 433ZM285 46Q452 46 452 211Q452 293 408 333T291 373Q180 373 119 264Q119 166 162 106T285 46Z" />
<glyph unicode="7" glyph-name="seven" horiz-adv-x="483" d="M111 24Q111 116 140 196T210 331T293 432T364 524T393 611H56Q43 611 34 620T25 642T34 664T56 673H429Q442 673 451 664T460 642Q460 580 431 524T360 419T276 319T205 191T175 24Q175 10 166 1T143
-8T121 1T111 24Z" />
<glyph unicode="8" glyph-name="eight" horiz-adv-x="554" d="M384 -14T277 -14T107 38T43 190Q43 254 74 300T161 368Q73 415 73 513Q73 600 127 643T277 687T426 644T481 513Q481 415 393 368Q449 347 480 301T511 190Q511 91 448 39ZM343 627T277 627T175 599T139
513Q139 455 175 425T277 395T378 425T415 513Q415 570 379 598ZM358 335T277 335T153 299T109 190Q109 118 154 82T277 46T400 82T445 190Q445 263 402 299Z" />
<glyph unicode="9" glyph-name="nine" horiz-adv-x="566" d="M275 240Q172 240 110 296T48 462Q48 578 110 632T281 687Q401 687 459 597T518 352Q518 -14 267 -14Q212 -14 169 2T106 41Q96 51 96 64T105 86T127 95Q137 95 148 87Q203 46 267 46Q452 46 452 328Q428
293 382 267T275 240ZM281 627Q114 627 114 462Q114 380 158 340T275 300Q386 300 447 409Q447 507 404 567T281 627Z" />
<glyph unicode=":" glyph-name="colon" horiz-adv-x="160" d="M127 -8T80 -8T33 39Q33 87 80 87T127 39Q127 -8 80 -8ZM127 361T80 361T33 408Q33 456 80 456T127 408Q127 361 80 361Z" />
<glyph unicode=";" glyph-name="semicolon" horiz-adv-x="160" d="M129 23Q129 -81 57 -156Q51 -162 44 -162Q29 -162 29 -147Q29 -142 32 -138Q69 -87 69 -47Q69 -28 51 -5T33 39Q33 87 80 87Q129 87 129 23ZM127 361T80 361T33 408Q33 456 80 456T127 408Q127
361 80 361Z" />
<glyph unicode="&lt;" glyph-name="less" horiz-adv-x="337" d="M0 221T0 235T13 258L294 480Q301 485 310 485Q321 485 329 477T337 458Q337 444 326 436L66 235L326 34Q337 26 337 12Q337 1 329 -7T310 -15Q301 -15 294 -10L13 212Q0 221 0 235Z" />
<glyph unicode="=" glyph-name="equal" horiz-adv-x="454" d="M454 305T454 294T446 275T427 267H27Q16 267 8 275T0 294T8 313T27 321H427Q438 321 446 313ZM454 152T454 141T446 122T427 114H27Q16 114 8 122T0 141T8 160T27 168H427Q438 168 446 160Z" />
<glyph unicode="&gt;" glyph-name="greater" horiz-adv-x="337" d="M337 249T337 235T324 212L43 -10Q36 -15 27 -15Q16 -15 8 -7T0 12Q0 26 11 34L271 235L11 436Q0 444 0 458Q0 469 8 477T27 485Q36 485 43 480L324 258Q337 249 337 235Z" />
<glyph unicode="?" glyph-name="question" horiz-adv-x="461" d="M185 158Q153 190 153 243Q153 279 174 307T227 354T288 394T340 445T362 518Q362 572 327 600T228 628Q168 628 134 598T100 508Q100 494 90 485T67 475T44 484T34 508Q34 592 85 639T228 687Q321
687 373 643T426 518Q426 469 405 431T354 369T293 326T241 286T220 243Q220 224 234 203Q242 191 242 181Q242 166 232 157T209 148Q195 148 185 158ZM252 -8T205 -8T158 39Q158 87 205 87T252 39Q252 -8 205 -8Z" />
<glyph unicode="@" glyph-name="at" horiz-adv-x="801" d="M494 54Q455 -7 375 -7Q317 -7 279 22T241 102Q241 152 275 181T371 210H487V235Q487 272 462 292T394 312Q342 312 306 271Q297 262 286 262Q276 262 269 269T262 286Q262 294 267 301Q310 359 394 359Q463
359 499 324T535 230V108Q535 68 551 52T600 35Q656 35 683 71T711 195Q711 345 629 418T399 491Q249 491 170 416T90 172Q90 3 169 -71T399 -146Q548 -146 630 -91Q636 -87 643 -87Q652 -87 659 -93T666 -110Q666 -122 656 -129Q557 -190 399 -190Q226 -190 133
-100T40 172T133 444T399 535Q562 535 661 448T761 195Q761 166 758 141T744 87T716 39T669 6T600 -7Q520 -7 494 54ZM336 37T379 37T454 62T487 134V167H371Q291 167 291 102Q291 71 313 54Z" />
<glyph unicode="A" glyph-name="A" horiz-adv-x="613" d="M425 261L306 567L188 261H425ZM446 199H167L94 16Q85 -8 61 -8Q47 -8 37 2T27 26Q27 35 30 41L274 658Q284 681 306 681Q329 681 339 658L583 41Q586 34 586 26Q586 12 576 2T551 -8Q527 -8 518 15L446 199Z" />
<glyph unicode="B" glyph-name="B" horiz-adv-x="561" d="M148 611V379H283Q349 379 384 410T419 495Q419 611 283 611H148ZM148 321V62H313Q380 62 415 96T450 192Q450 253 414 287T313 321H148ZM314 0H114Q100 0 90 10T80 34V639Q80 653 90 663T114 673H284Q387
673 437 626T488 495Q488 446 461 409T391 359Q449 345 484 303T519 192Q519 104 466 52T314 0Z" />
<glyph unicode="C" glyph-name="C" horiz-adv-x="631" d="M356 -14Q44 -14 44 336Q44 510 125 598T356 687Q427 687 486 659T581 581Q588 571 588 560Q588 546 579 537T556 528Q540 528 530 541Q503 578 457 601T356 625Q239 625 177 553T114 336Q114 185 175
117T356 48Q408 48 455 69T530 130Q539 143 556 143Q570 143 579 134T588 111Q588 101 582 92Q549 44 487 15T356 -14Z" />
<glyph unicode="D" glyph-name="D" horiz-adv-x="608" d="M148 611V62H255Q373 62 434 124T495 336Q495 484 434 547T255 611H148ZM114 673H255Q405 673 484 594T564 336T485 79T255 0H114Q100 0 90 10T80 34V639Q80 653 90 663T114 673Z" />
<glyph unicode="E" glyph-name="E" horiz-adv-x="518" d="M446 0H114Q100 0 90 10T80 34V639Q80 653 90 663T114 673H435Q448 673 457 664T466 642T457 620T435 611H148V370H368Q381 370 390 361T399 339T390 317T368 308H148V62H446Q459 62 468 53T477 31T468 9T446 0Z" />
<glyph unicode="F" glyph-name="F" horiz-adv-x="518" d="M148 300V26Q148 12 138 2T114 -8T90 2T80 26V639Q80 653 90 663T114 673H435Q448 673 457 664T466 642T457 620T435 611H148V362H368Q381 362 390 353T399 331T390 309T368 300H148Z" />
<glyph unicode="G" glyph-name="G" horiz-adv-x="663" d="M356 48Q478 48 542 128V273H375Q362 273 353 282T344 304T353 326T375 335H577Q589 335 598 326T608 304V129Q608 112 595 96Q501 -14 356 -14Q44 -14 44 336Q44 510 125 598T356 687Q427 687 486 659T581
581Q588 571 588 560Q588 546 579 537T556 528Q540 528 530 541Q503 578 457 601T356 625Q239 625 177 553T114 336Q114 185 175 117T356 48Z" />
<glyph unicode="H" glyph-name="H" horiz-adv-x="644" d="M496 314H148V26Q148 12 138 2T114 -8T90 2T80 26V647Q80 661 90 671T114 681T138 671T148 647V376H496V647Q496 661 506 671T530 681T554 671T564 647V26Q564 12 554 2T530 -8T506 2T496 26V314Z" />
<glyph unicode="I" glyph-name="I" horiz-adv-x="228" d="M148 647V26Q148 12 138 2T114 -8T90 2T80 26V647Q80 661 90 671T114 681T138 671T148 647Z" />
<glyph unicode="J" glyph-name="J" horiz-adv-x="413" d="M35 10Q16 21 16 40Q16 54 26 63T49 73Q56 73 69 67Q101 51 143 51Q206 51 235 92T265 203V647Q265 661 275 671T299 681T323 671T333 647V203Q333 104 288 46T143 -13Q75 -13 35 10Z" />
<glyph unicode="K" glyph-name="K" horiz-adv-x="554" d="M148 335L439 668Q449 681 466 681Q480 681 490 671T501 646Q501 634 491 622L282 388L524 47Q531 36 531 26Q531 12 521 2T497 -8Q479 -8 468 8L236 338L148 239V26Q148 12 138 2T114 -8T90 2T80 26V647Q80
661 90 671T114 681T138 671T148 647V335Z" />
<glyph unicode="L" glyph-name="L" horiz-adv-x="483" d="M148 64H422Q436 64 445 55T454 32T445 9T422 0H114Q100 0 90 10T80 34V647Q80 661 90 671T114 681T138 671T148 647V64Z" />
<glyph unicode="M" glyph-name="M" horiz-adv-x="761" d="M375 109Q354 109 345 128L136 517V25Q136 12 126 2T103 -8T80 2T70 25V648Q70 662 80 671T103 681Q124 681 133 662L375 209L618 662Q629 681 648 681Q662 681 671 672T681 648V25Q681 12 672 2T648 -8T625
2T615 25V517L405 128Q395 109 375 109Z" />
<glyph unicode="N" glyph-name="N" horiz-adv-x="620" d="M504 681T517 681T540 672T550 648V26Q550 12 540 2T516 -8Q499 -8 488 6L136 537V25Q136 12 126 2T103 -8T80 2T70 25V648Q70 662 80 671T103 681Q120 681 130 667L484 135V648Q484 662 494 671Z" />
<glyph unicode="O" glyph-name="O" horiz-adv-x="712" d="M504 -14T356 -14T126 74T44 336Q44 510 125 598T356 687T586 599T668 336Q668 163 586 75ZM473 625T356 625T177 553T114 336Q114 192 176 120T356 48T535 120T598 336Q598 481 536 553Z" />
<glyph unicode="P" glyph-name="P" horiz-adv-x="544" d="M148 611V344H303Q365 344 400 379T435 478Q435 543 400 577T303 611H148ZM148 282V26Q148 12 138 2T114 -8T90 2T80 26V639Q80 653 90 663T114 673H313Q398 673 451 624T504 478Q504 383 451 333T313 282H148Z" />
<glyph unicode="Q" glyph-name="Q" horiz-adv-x="712" d="M356 -14Q208 -14 126 74T44 336Q44 510 125 598T356 687T586 599T668 336Q668 87 502 13Q548 -7 574 -39Q584 -52 584 -64Q584 -78 574 -87T550 -97T525 -86Q488 -45 456 -30T356 -14ZM473 625T356 625T177
553T114 336Q114 192 176 120T356 48T535 120T598 336Q598 481 536 553Z" />
<glyph unicode="R" glyph-name="R" horiz-adv-x="546" d="M148 611V353H315Q367 353 401 390T435 482Q435 538 401 574T312 611H148ZM148 291V26Q148 12 138 2T114 -8T90 2T80 26V639Q80 653 90 663T114 673H313Q396 673 450 618T504 482Q504 403 455 349T325
291L508 47Q515 39 515 26Q515 12 505 2T481 -8Q463 -8 452 8L249 291H148Z" />
<glyph unicode="S" glyph-name="S" horiz-adv-x="558" d="M443 546Q379 625 281 625Q207 625 172 594T136 516Q136 471 175 442T269 395T380 356T475 291T514 180Q514 86 452 36T274 -14Q193 -14 131 21T41 109Q36 119 36 127Q36 140 45 149T68 159Q86 159 96
143Q154 48 274 48Q357 48 401 81T446 180Q446 223 418 253T348 297T257 329T166 365T96 422T68 516Q68 590 122 638T281 687Q351 687 407 660T495 584Q501 575 501 565Q501 552 492 543T469 533Q453 533 443 546Z" />
<glyph unicode="T" glyph-name="T" horiz-adv-x="538" d="M235 609H56Q42 609 33 618T24 641T33 663T56 673H481Q494 673 503 664T513 641T504 619T481 609H303V26Q303 12 293 2T269 -8T245 2T235 26V609Z" />
<glyph unicode="U" glyph-name="U" horiz-adv-x="624" d="M315 -14Q80 -14 80 205V647Q80 661 90 671T114 681T138 671T148 647V205Q148 172 155 147T179 98T231 63T315 50Q409 50 445 92T481 205V647Q481 661 491 671T515 681T539 671T549 647V205Q549 -14 315 -14Z" />
<glyph unicode="V" glyph-name="V" horiz-adv-x="576" d="M288 121L491 659Q499 681 523 681Q537 681 547 671T557 647Q557 641 554 632L320 15Q312 -8 288 -8T256 15L22 632Q19 641 19 647Q19 661 29 671T53 681Q77 681 85 659L288 121Z" />
<glyph unicode="W" glyph-name="W" horiz-adv-x="818" d="M553 18L409 527L265 18Q258 -8 232 -8T199 17L22 635Q20 643 20 647Q20 661 30 671T54 681Q80 681 87 656L233 139L376 656Q382 681 409 681T442 656L585 139L731 656Q738 681 764 681Q778 681 788 671T798
647Q798 643 796 635L619 17Q612 -8 586 -8T553 18Z" />
<glyph unicode="X" glyph-name="X" horiz-adv-x="500" d="M432 5L250 284L68 5Q60 -8 41 -8Q27 -8 17 2T7 26Q7 36 12 44L212 345L24 629Q19 636 19 647Q19 661 29 671T53 681Q71 681 83 664L250 408L417 664Q429 681 447 681Q461 681 471 671T481 647Q481 636
476 629L288 345L488 44Q493 36 493 26Q493 12 483 2T459 -8Q440 -8 432 5Z" />
<glyph unicode="Y" glyph-name="Y" horiz-adv-x="518" d="M273 -8T259 -8T235 2T225 26V313L24 629Q19 637 19 647Q19 661 29 671T53 681Q72 681 82 665L259 381L436 665Q446 681 465 681Q479 681 489 671T499 647Q499 637 494 629L293 313V26Q293 12 283 2Z" />
<glyph unicode="Z" glyph-name="Z" horiz-adv-x="513" d="M469 0H49Q36 0 27 9T17 32Q17 42 23 51L395 609H70Q56 609 47 618T38 641T47 663T70 673H454Q468 673 477 664T486 641Q486 631 480 622L111 64H469Q482 64 491 55T501 32T492 9T469 0Z" />
<glyph unicode="[" glyph-name="bracketleft" horiz-adv-x="259" d="M239 -110T239 -120T232 -138T213 -146H112Q98 -146 89 -137T80 -114V706Q80 720 89 729T112 738H213Q224 738 231 730T239 712T232 694T213 686H144V-94H213Q224 -94 231 -102Z" />
<glyph unicode="\" glyph-name="backslash" horiz-adv-x="407" d="M102 728L366 -51Q369 -60 369 -66Q369 -80 360 -89T337 -98Q313 -98 306 -75L42 704Q39 713 39 719Q39 732 48 741T71 751Q95 751 102 728Z" />
<glyph unicode="]" glyph-name="bracketright" horiz-adv-x="259" d="M20 -130T20 -120T28 -102T46 -94H115V686H46Q36 686 28 694T20 712T28 730T46 738H147Q160 738 169 729T179 706V-114Q179 -128 170 -137T147 -146H46Q36 -146 28 -138Z" />
<glyph unicode="^" glyph-name="asciicircum" horiz-adv-x="468" d="M379 353L234 614L89 353Q82 340 66 340Q55 340 47 348T39 367Q39 374 42 380L211 678Q218 691 234 691T257 678L426 380Q429 374 429 367Q429 356 421 348T402 340Q386 340 379 353Z" />
<glyph unicode="_" glyph-name="underscore" horiz-adv-x="406" d="M427 -59T427 -70T419 -89T400 -97H6Q-5 -97 -13 -89T-21 -70T-13 -51T6 -43H400Q411 -43 419 -51Z" />
<glyph unicode="`" glyph-name="grave" horiz-adv-x="370" d="M249 520Q234 507 219 522L122 620Q104 638 125 658Q147 678 163 658L252 550Q265 533 249 520Z" />
<glyph unicode="a" glyph-name="a" horiz-adv-x="467" d="M232 408Q161 408 116 357Q103 343 90 343Q78 343 70 351T61 372Q61 381 66 389Q116 468 232 468Q318 468 365 422T412 298V23Q412 10 403 1T381 -8T359 1T350 23V59Q332 25 293 6T207 -13Q127 -13 81
24T34 130Q34 196 81 233T209 271H350V298Q350 349 319 378T232 408ZM213 45Q269 45 309 79T350 173V215H209Q158 215 129 194T99 130Q99 45 213 45Z" />
<glyph unicode="b" glyph-name="b" horiz-adv-x="501" d="M129 322V184Q129 115 165 80T261 45Q402 45 402 228Q402 410 261 410Q229 410 202 396T160 366T137 336L129 322ZM265 468Q466 468 466 228Q466 107 413 47T261 -13Q172 -13 119 37T65 184V680Q65 694
74 703T97 712T119 703T129 680V403Q148 430 184 449T265 468Z" />
<glyph unicode="c" glyph-name="c" horiz-adv-x="441" d="M35 107T35 228T88 408T241 468Q299 468 338 446T395 399Q402 389 402 380Q402 367 394 359T373 351Q360 351 349 363Q308 410 241 410Q100 410 100 228Q100 45 241 45Q299 45 357 88Q367 95 376 95Q388
95 396 87T405 66Q405 53 392 41Q326 -13 241 -13Q142 -13 89 47Z" />
<glyph unicode="d" glyph-name="d" horiz-adv-x="501" d="M372 184V322L364 336Q356 350 342 366T300 396T240 410Q99 410 99 228Q99 45 240 45Q300 45 336 80T372 184ZM236 468Q281 468 317 449T372 403V680Q372 694 381 703T404 712T427 703T436 680V184Q436
88 383 38T240 -13Q141 -13 88 47T35 228Q35 468 236 468Z" />
<glyph unicode="e" glyph-name="e" horiz-adv-x="466" d="M35 228Q35 343 89 405T241 468Q287 468 322 454T377 419T410 371T427 320T432 273Q432 258 431 250T427 231T415 215T392 209H100Q100 134 140 90T251 46Q314 46 371 89Q380 95 389 95Q401 95 409 87T418
66T407 43Q351 -13 251 -13Q148 -13 92 46T35 228ZM369 265Q369 410 241 410Q177 410 141 372T100 265H369Z" />
<glyph unicode="f" glyph-name="f" horiz-adv-x="289" d="M85 394H51Q38 394 30 402T21 424T29 445T51 454H85V513Q85 587 128 636T258 685Q271 685 279 677T288 655T280 634T258 625Q202 625 176 595T149 513V454H240Q253 454 261 446T270 424T262 403T240 394H149V24Q149
10 140 1T117 -8T95 1T85 24V394Z" />
<glyph unicode="g" glyph-name="g" horiz-adv-x="478" d="M229 468Q292 468 336 443Q350 469 370 483T425 497Q437 497 445 489T454 468T446 448T425 439Q391 439 377 408Q413 364 413 300Q413 223 364 178T229 132Q165 132 121 157Q103 142 103 121Q103 79 177
79H280Q357 79 406 45T455 -57Q455 -131 396 -166T240 -201Q183 -201 138 -190T60 -146T27 -61Q27 9 103 40Q75 49 58 70T41 121Q41 164 81 191Q45 236 45 300Q45 377 94 422T229 468ZM172 190T229 190T317 220T348 300T317 380T229 410T141 380T110 300T141 220ZM390
-57Q390 19 280 19H176Q92 5 92 -61Q92 -104 134 -124T241 -145T348 -124T390 -57Z" />
<glyph unicode="h" glyph-name="h" horiz-adv-x="501" d="M262 468Q446 468 446 291V24Q446 10 437 1T414 -8T391 1T382 24V278Q382 343 356 377T262 411Q129 411 129 271V24Q129 10 120 1T97 -8T75 1T65 24V680Q65 694 74 703T97 712T119 703T129 680V398Q144
428 179 448T262 468Z" />
<glyph unicode="i" glyph-name="i" horiz-adv-x="193" d="M128 430V24Q128 10 119 1T96 -8T73 1T64 24V430Q64 444 73 453T96 462T119 453T128 430ZM134 556T96 556T58 594Q58 634 96 634T134 594Q134 556 96 556Z" />
<glyph unicode="j" glyph-name="j" horiz-adv-x="194" d="M65 -35V430Q65 444 74 453T97 462T119 453T129 430V-35Q129 -99 88 -142T-17 -185Q-30 -185 -38 -177T-47 -155T-39 -134T-17 -125Q19 -125 42 -99T65 -35ZM135 556T97 556T59 594Q59 634 97 634T135
594Q135 556 97 556Z" />
<glyph unicode="k" glyph-name="k" horiz-adv-x="453" d="M395 -8Q379 -8 367 7L190 234L129 185V24Q129 10 120 1T97 -8T75 1T65 24V680Q65 694 74 703T97 712T119 703T129 680V261L365 454Q374 462 387 462T409 453T419 430Q419 414 406 404L242 273L420 44Q427
36 427 24Q427 10 418 1T395 -8Z" />
<glyph unicode="l" glyph-name="l" horiz-adv-x="219" d="M84 712T97 712T119 703T129 680V109Q129 52 169 52Q181 52 190 44T199 22T190 1T169 -8Q65 -8 65 109V680Q65 693 74 702Z" />
<glyph unicode="m" glyph-name="m" horiz-adv-x="808" d="M564 468Q753 468 753 291V24Q753 10 744 1T721 -8T699 1T689 24V278Q689 342 661 376T564 411Q501 411 470 380T439 291V24Q439 10 430 1T407 -8T385 1T375 24V278Q375 343 348 377T252 411Q129 411 129
271V24Q129 10 120 1T97 -8T75 1T65 24V430Q65 444 74 453T97 462T119 453T129 430V398Q143 428 178 448T259 468Q376 468 418 398Q463 468 564 468Z" />
<glyph unicode="n" glyph-name="n" horiz-adv-x="501" d="M262 468Q446 468 446 291V24Q446 10 437 1T414 -8T391 1T382 24V278Q382 343 356 377T262 411Q129 411 129 271V24Q129 10 120 1T97 -8T75 1T65 24V430Q65 444 74 453T97 462T119 453T129 430V398Q144
428 179 448T262 468Z" />
<glyph unicode="o" glyph-name="o" horiz-adv-x="490" d="M145 468T245 468T400 408T455 228T400 48T245 -13Q146 -13 91 47T35 228T90 408ZM100 45T245 45T390 228Q390 410 245 410T100 228Q100 45 245 45Z" />
<glyph unicode="p" glyph-name="p" horiz-adv-x="509" d="M84 462T97 462T119 453T129 430V398Q145 426 181 447T265 468Q365 468 419 408T474 228T420 48T265 -13Q218 -13 183 7T129 57V-169Q129 -182 120 -191T97 -201T75 -192T65 -169V430Q65 443 74 452ZM127
320T127 228T165 91T265 45Q409 45 409 228Q409 410 263 410Q203 410 165 365Z" />
<glyph unicode="q" glyph-name="q" horiz-adv-x="490" d="M372 133V271Q372 340 336 375T240 410Q99 410 99 227Q99 45 240 45Q272 45 299 58T341 89T364 120L372 133ZM236 -13Q35 -13 35 227Q35 348 88 408T240 468Q329 468 382 418T436 271V-169Q436 -182 427
-191T404 -201T381 -192T372 -169V52Q353 25 317 6T236 -13Z" />
<glyph unicode="r" glyph-name="r" horiz-adv-x="309" d="M129 430V386Q145 422 181 444T268 466Q281 466 290 457T299 435T290 413T268 404Q201 404 165 362T129 248V24Q129 10 120 1T97 -8T75 1T65 24V430Q65 444 74 453T97 462T119 453T129 430Z" />
<glyph unicode="s" glyph-name="s" horiz-adv-x="424" d="M207 406Q118 406 118 346Q118 317 145 298T211 267T288 239T354 194T381 120Q381 55 334 22T211 -12Q154 -12 108 10T40 60Q33 70 33 79Q33 91 41 99T62 108T84 98Q133 49 211 49Q258 49 287 66T317 120Q317
148 290 166T225 197T147 225T81 270T54 346Q54 406 96 436T207 467Q311 467 359 403Q366 394 366 384Q366 372 358 364T337 355T316 364Q272 406 207 406Z" />
<glyph unicode="t" glyph-name="t" horiz-adv-x="279" d="M90 454V559Q90 572 99 581T122 591T144 582T154 559V454H219Q232 454 240 446T249 424T241 403T219 394H154V118Q154 87 170 70T212 52Q225 52 234 44T243 22T234 1T212 -8Q154 -8 122 27T90 118V394H51Q38
394 30 402T21 424T29 445T51 454H90Z" />
<glyph unicode="u" glyph-name="u" horiz-adv-x="482" d="M74 462T87 462T109 453T119 430V169Q119 113 145 81T241 48T337 80T363 169V430Q363 443 372 452T396 462Q409 462 418 453T427 430V169Q427 86 387 37T241 -13T95 36T55 169V430Q55 444 64 453Z" />
<glyph unicode="v" glyph-name="v" horiz-adv-x="438" d="M240 -8T219 -8T189 12L19 416Q16 425 16 430Q16 444 25 453T48 462Q70 462 78 441L219 96L360 441Q368 462 390 462Q404 462 413 453T422 430Q422 425 419 416L249 12Q240 -8 219 -8Z" />
<glyph unicode="w" glyph-name="w" horiz-adv-x="640" d="M412 15L320 332L228 15Q221 -8 197 -8Q175 -8 167 13L20 416Q17 424 17 430Q17 444 26 453T49 462Q71 462 79 441L195 110L290 441Q296 462 320 462T350 441L445 110L561 441Q569 462 591 462Q604 462
613 453T623 430Q623 424 620 416L473 13Q465 -8 443 -8Q419 -8 412 15Z" />
<glyph unicode="x" glyph-name="x" horiz-adv-x="412" d="M331 5L206 182L81 5Q72 -8 55 -8Q42 -8 33 1T23 24Q23 36 29 43L166 232L33 411Q27 421 27 430Q27 444 36 453T59 462Q75 462 85 449L206 283L327 449Q337 462 353 462Q366 462 375 453T385 430Q385 421
379 411L246 232L383 43Q389 35 389 24Q389 10 380 1T357 -8Q340 -8 331 5Z" />
<glyph unicode="y" glyph-name="y" horiz-adv-x="438" d="M35 -141Q61 -141 81 -133T113 -115T140 -80T162 -38T186 19L19 416Q16 425 16 430Q16 444 25 453T48 462Q70 462 78 441L219 96L360 441Q368 462 390 462Q404 462 413 453T422 430Q422 425 419 416L222
-53Q190 -129 147 -165T35 -201Q22 -201 14 -193T5 -171T13 -150T35 -141Z" />
<glyph unicode="z" glyph-name="z" horiz-adv-x="405" d="M38 411T38 424T46 445T68 454H342Q355 454 363 446T372 424Q372 413 365 404L116 62H347Q360 62 369 53T378 31T369 9T347 0H54Q41 0 33 8T24 30Q24 41 31 50L283 394H68Q55 394 47 402Z" />
<glyph unicode="{" glyph-name="braceleft" horiz-adv-x="338" d="M312 -107T312 -118T304 -137T284 -146Q213 -146 178 -112T143 -29Q143 -3 149 75T155 181Q155 235 129 254T55 273H48Q38 273 32 279T25 296T31 312T48 319H55Q103 319 129 338T155 412Q155 444
149 506T143 622Q143 670 178 704T284 738Q295 738 303 730T312 710T304 691T284 682Q210 682 210 609Q210 586 214 517T218 420Q218 365 187 331T97 296Q155 296 186 262T218 172Q218 148 214 77T210 -17Q210 -90 284 -90Q295 -90 303 -98Z" />
<glyph unicode="|" glyph-name="bar" horiz-adv-x="216" d="M141 775V-127Q141 -140 132 -150T108 -160T85 -150T75 -127V775Q75 788 84 798T108 808T131 798T141 775Z" />
<glyph unicode="}" glyph-name="braceright" horiz-adv-x="338" d="M26 -129T26 -118T34 -99T54 -90Q128 -90 128 -17Q128 6 124 77T120 172Q120 227 151 261T241 296Q183 296 152 330T120 420Q120 448 124 517T128 609Q128 682 54 682Q43 682 35 690T26 710T34
729T54 738Q124 738 159 704T195 622Q195 568 189 506T183 412Q183 357 209 338T283 319H290Q300 319 306 313T313 296T307 280T290 273H283Q235 273 209 254T183 181Q183 153 189 75T195 -29Q195 -78 160 -112T54 -146Q43 -146 35 -138Z" />
<glyph unicode="~" glyph-name="asciitilde" horiz-adv-x="477" d="M329 293Q347 293 359 300T376 314T387 334Q395 350 412 350Q422 350 430 342T438 324Q438 318 436 312Q426 281 399 261T329 240T231 272T147 305Q129 305 117 298T100 284T89 264Q81 248 64
248Q54 248 46 256T38 274Q38 280 40 286Q50 317 77 337T147 358Q188 358 244 326T329 293Z" />
</font>
</defs>
</svg>
